# xmcd
#
# Track frame offsets: 
#        150
#        17897
#        36623
#        54707
#        70780
#        82435
#        100721
#        116952
#        131318
#        143431
#        157168
#        172173
#        188773
#        200806
#        213950
#        232577
#        249029
#        263696
#        279722
#        291015
#
# Disc length: 4129 seconds
#
# Revision: 1
# Processed by: cddbd v1.5.2PL0 Copyright (c) Steve Scherf et al.
# Submitted via: ExactAudioCopyFreeDBPlugin 1.0
#
DISCID=2b101f14
DTITLE=Juice Newton - Angel Of The Morning
DYEAR=2005
DGENRE=Country
TTITLE0=A Little Love
TTITLE1=Angel of the Morning
TTITLE2=Break it to Me Gently
TTITLE3=Cheap Love
TTITLE4=Crazy Little Thing Called Love
TTITLE5=Heart of the Night
TTITLE6=Hurt
TTITLE7=Love's Been a Little Hard
TTITLE8=Night Time Without You
TTITLE9=Old Flame
TTITLE10=Queen of Hearts
TTITLE11=Ride 'em Cowboy
TTITLE12=Stuck in the Middle
TTITLE13=Sunshine
TTITLE14=The Sweetest Thing
TTITLE15=Tell Her No
TTITLE16=Tell Me True
TTITLE17=What Can I Do With My Heart
TTITLE18=When Love Comes Around the Bend
TTITLE19=You Make Me Want to Make You Mine
EXTD=
EXTT0=
EXTT1=
EXTT2=
EXTT3=
EXTT4=
EXTT5=
EXTT6=
EXTT7=
EXTT8=
EXTT9=
EXTT10=
EXTT11=
EXTT12=
EXTT13=
EXTT14=
EXTT15=
EXTT16=
EXTT17=
EXTT18=
EXTT19=
PLAYORDER=
